<?xml version="1.0" standalone="no"?>
<!DOCTYPE svg PUBLIC "-//W3C//DTD SVG 20010904//EN"
 "http://www.w3.org/TR/2001/REC-SVG-20010904/DTD/svg10.dtd">
<svg version="1.0" xmlns="http://www.w3.org/2000/svg"
 width="512.000000pt" height="512.000000pt" viewBox="0 0 512.000000 512.000000"
 preserveAspectRatio="xMidYMid meet">

<g transform="translate(0.000000,512.000000) scale(0.100000,-0.100000)"
fill="#000000" stroke="none">
<path d="M2506 4255 c-30 -10 -121 -95 -373 -347 -183 -183 -346 -351 -361
-372 -22 -32 -27 -50 -27 -97 0 -65 18 -98 75 -136 37 -25 115 -31 153 -12 12
6 113 102 225 212 l202 202 0 -704 c0 -786 -3 -749 71 -798 53 -35 125 -35
178 0 74 49 71 12 71 798 l0 704 203 -202 c111 -110 212 -206 224 -212 12 -6
44 -11 71 -11 80 0 148 59 159 137 11 85 4 94 -366 466 -190 192 -357 355
-371 362 -42 22 -92 26 -134 10z"/>
<path d="M508 2482 c-14 -9 -37 -31 -50 -47 l-23 -29 -3 -466 c-2 -315 1 -484
8 -525 40 -213 223 -406 436 -459 58 -15 248 -32 664 -61 862 -59 1452 -51
2455 30 214 18 280 32 374 78 95 46 207 159 254 257 66 136 67 143 67 658 0
407 -2 468 -16 498 -24 51 -68 77 -135 82 -68 5 -115 -18 -148 -71 -19 -30
-20 -54 -23 -492 -3 -444 -4 -462 -24 -506 -27 -57 -85 -116 -138 -140 -44
-19 -319 -45 -801 -74 -756 -46 -1212 -39 -2120 31 -363 28 -382 32 -450 99
-21 21 -47 59 -59 84 -20 44 -21 64 -26 511 -6 517 -3 495 -75 540 -42 26
-129 27 -167 2z"/>
</g>
</svg>
